<svg id="kity_svg_6" xmlns="http://www.w3.org/2000/svg" xmlns:xlink="http://www.w3.org/1999/xlink" version="1.1" width="1953" height="2545" style="background: rgb(251, 251, 251); visibility: visible;" viewBox="0 0 1953 2545"><defs id="kity_defs_7"><linearGradient id="kity_linearGradient_17" x1="0" y1="0" x2="0" y2="1"><stop id="kity_stop_18" offset="0" stop-color="rgb(255, 255, 255)"></stop><stop id="kity_stop_19" offset="1" stop-color="rgb(204, 204, 204)"></stop></linearGradient><marker id="kity_marker_2" orient="auto" refX="6" refY="0" viewBox="-7 -7 14 14" markerWidth="7" markerHeight="7" markerUnits="userSpaceOnUse"><path id="kity_path_3" fill="rgb(115, 191, 118)" stroke="none" d="M6,0A6,6,0,1,1,-6,0A6,6,0,1,1,6,0"></path></marker></defs><g id="kity_g_8"><g id="minder1" text-rendering="optimize-speed"><g id="minder_connect_group1"><path id="kity_path_31" fill="none" stroke="rgb(115, 191, 118)" stroke-width="1" d="M987.5,1273.5A164,467,0,0,1,1151.5,806.5"></path><path id="kity_path_33" fill="none" stroke="rgb(115, 191, 118)" stroke-width="1" d="M1222.5,806.5C1237.5,806.5,1237.5,739.5,1252.5,739.5L1418.5,739.5"></path><path id="kity_path_35" fill="none" stroke="rgb(115, 191, 118)" stroke-width="1" d="M1418.5,739.5C1533,739.5,1533,816.5,1647.5,816.5L1877.5,816.5"></path><path id="kity_path_37" fill="none" stroke="rgb(115, 191, 118)" stroke-width="1" d="M1222.5,806.5C1237.5,806.5,1237.5,901.5,1252.5,901.5L1320.5,901.5"></path><path id="kity_path_39" fill="none" stroke="rgb(115, 191, 118)" stroke-width="1" d="M1320.5,901.5C1335.5,901.5,1335.5,947.5,1350.5,947.5L1580.5,947.5"></path><path id="kity_path_41" fill="none" stroke="rgb(115, 191, 118)" stroke-width="1" d="M987.5,1273.5A164,252,0,0,1,1151.5,1021.5"></path><path id="kity_path_43" fill="none" stroke="rgb(115, 191, 118)" stroke-width="1" d="M1250.5,1021.5C1265.5,1021.5,1265.5,1009.5,1280.5,1009.5L1374.5,1009.5"></path><path id="kity_path_45" fill="none" stroke="rgb(115, 191, 118)" stroke-width="1" d="M1374.5,1009.5C1389.5,1009.5,1389.5,1009.5,1404.5,1009.5L1798.5,1009.5"></path><path id="kity_path_47" fill="none" stroke="rgb(115, 191, 118)" stroke-width="1" d="M1250.5,1021.5C1265.5,1021.5,1265.5,1061.5,1280.5,1061.5L1354.5,1061.5"></path><path id="kity_path_49" fill="none" stroke="rgb(115, 191, 118)" stroke-width="1" d="M1354.5,1061.5C1369.5,1061.5,1369.5,1061.5,1384.5,1061.5L1561.5,1061.5"></path><path id="kity_path_51" fill="none" stroke="rgb(115, 191, 118)" stroke-width="1" d="M987.5,1273.5A164,17,0,0,1,1151.5,1256.5"></path><path id="kity_path_53" fill="none" stroke="rgb(115, 191, 118)" stroke-width="1" d="M1288.5,1256.5C1303.5,1256.5,1303.5,1149.5,1318.5,1149.5L1411.5,1149.5"></path><path id="kity_path_55" fill="none" stroke="rgb(115, 191, 118)" stroke-width="1" d="M1411.5,1149.5C1426.5,1149.5,1426.5,1123.5,1441.5,1123.5L1639.5,1123.5"></path><path id="kity_path_57" fill="none" stroke="rgb(115, 191, 118)" stroke-width="1" d="M1411.5,1149.5C1426.5,1149.5,1426.5,1175.5,1441.5,1175.5L1521.5,1175.5"></path><path id="kity_path_59" fill="none" stroke="rgb(115, 191, 118)" stroke-width="1" d="M1288.5,1256.5C1303.5,1256.5,1303.5,1253.5,1318.5,1253.5L1441.5,1253.5"></path><path id="kity_path_61" fill="none" stroke="rgb(115, 191, 118)" stroke-width="1" d="M1441.5,1253.5C1456.5,1253.5,1456.5,1227.5,1471.5,1227.5L1672.5,1227.5"></path><path id="kity_path_63" fill="none" stroke="rgb(115, 191, 118)" stroke-width="1" d="M1441.5,1253.5C1456.5,1253.5,1456.5,1279.5,1471.5,1279.5L1732.5,1279.5"></path><path id="kity_path_65" fill="none" stroke="rgb(115, 191, 118)" stroke-width="1" d="M1288.5,1256.5C1303.5,1256.5,1303.5,1392.5,1318.5,1392.5L1483.5,1392.5"></path><path id="kity_path_67" fill="none" stroke="rgb(115, 191, 118)" stroke-width="1" d="M1483.5,1392.5C1498.5,1392.5,1498.5,1349.5,1513.5,1349.5L1858.5,1349.5"></path><path id="kity_path_69" fill="none" stroke="rgb(115, 191, 118)" stroke-width="1" d="M1483.5,1392.5C1498.5,1392.5,1498.5,1401.5,1513.5,1401.5L1764.5,1401.5"></path><path id="kity_path_71" fill="none" stroke="rgb(115, 191, 118)" stroke-width="1" d="M1483.5,1392.5C1498.5,1392.5,1498.5,1453.5,1513.5,1453.5L1814.5,1453.5"></path><path id="kity_path_73" fill="none" stroke="rgb(115, 191, 118)" stroke-width="1" d="M987.5,1273.5A164,467,0,0,0,1151.5,1740.5"></path><path id="kity_path_75" fill="none" stroke="rgb(115, 191, 118)" stroke-width="1" d="M1260.5,1740.5C1275.5,1740.5,1275.5,1541.5,1290.5,1541.5L1388.5,1541.5"></path><path id="kity_path_77" fill="none" stroke="rgb(115, 191, 118)" stroke-width="1" d="M1388.5,1541.5C1403.5,1541.5,1403.5,1515.5,1418.5,1515.5L1594.5,1515.5"></path><path id="kity_path_79" fill="none" stroke="rgb(115, 191, 118)" stroke-width="1" d="M1388.5,1541.5C1403.5,1541.5,1403.5,1567.5,1418.5,1567.5L1546.5,1567.5"></path><path id="kity_path_81" fill="none" stroke="rgb(115, 191, 118)" stroke-width="1" d="M1260.5,1740.5C1275.5,1740.5,1275.5,1767.5,1290.5,1767.5L1413.5,1767.5"></path><path id="kity_path_83" fill="none" stroke="rgb(115, 191, 118)" stroke-width="1" d="M1413.5,1767.5C1428.5,1767.5,1428.5,1619.5,1443.5,1619.5L1892.5,1619.5"></path><path id="kity_path_85" fill="none" stroke="rgb(115, 191, 118)" stroke-width="1" d="M1413.5,1767.5C1428.5,1767.5,1428.5,1671.5,1443.5,1671.5L1917.5,1671.5"></path><path id="kity_path_87" fill="none" stroke="rgb(115, 191, 118)" stroke-width="1" d="M1413.5,1767.5C1428.5,1767.5,1428.5,1723.5,1443.5,1723.5L1712.5,1723.5"></path><path id="kity_path_89" fill="none" stroke="rgb(115, 191, 118)" stroke-width="1" d="M1413.5,1767.5C1428.5,1767.5,1428.5,1775.5,1443.5,1775.5L1933.5,1775.5"></path><path id="kity_path_91" fill="none" stroke="rgb(115, 191, 118)" stroke-width="1" d="M1413.5,1767.5C1428.5,1767.5,1428.5,1863.5,1443.5,1863.5L1695.5,1863.5"></path><path id="kity_path_93" fill="none" stroke="rgb(115, 191, 118)" stroke-width="1" d="M1413.5,1767.5C1428.5,1767.5,1428.5,1915.5,1443.5,1915.5L1784.5,1915.5"></path><path id="kity_path_95" fill="none" stroke="rgb(115, 191, 118)" stroke-width="1" d="M1260.5,1740.5C1275.5,1740.5,1275.5,1967.5,1290.5,1967.5L1369.5,1967.5"></path><path id="kity_path_97" fill="none" stroke="rgb(115, 191, 118)" stroke-width="1" d="M1369.5,1967.5C1384.5,1967.5,1384.5,1967.5,1399.5,1967.5L1574.5,1967.5"></path><path id="kity_path_99" fill="none" stroke="rgb(115, 191, 118)" stroke-width="1" d="M987.5,1273.5A164,1021,0,0,0,823.5,252.5"></path><path id="kity_path_101" fill="none" stroke="rgb(115, 191, 118)" stroke-width="1" d="M724.5,252.5C709.5,252.5,709.5,54.5,694.5,54.5L602.5,54.5"></path><path id="kity_path_103" fill="none" stroke="rgb(115, 191, 118)" stroke-width="1" d="M602.5,54.5C587.5,54.5,587.5,63.5,572.5,63.5L388.5,63.5"></path><path id="kity_path_105" fill="none" stroke="rgb(115, 191, 118)" stroke-width="1" d="M724.5,252.5C709.5,252.5,709.5,193.5,694.5,193.5L613.5,193.5"></path><path id="kity_path_107" fill="none" stroke="rgb(115, 191, 118)" stroke-width="1" d="M613.5,193.5C598.5,193.5,598.5,115.5,583.5,115.5L443.5,115.5"></path><path id="kity_path_109" fill="none" stroke="rgb(115, 191, 118)" stroke-width="1" d="M613.5,193.5C598.5,193.5,598.5,167.5,583.5,167.5L297.5,167.5"></path><path id="kity_path_111" fill="none" stroke="rgb(115, 191, 118)" stroke-width="1" d="M613.5,193.5C598.5,193.5,598.5,219.5,583.5,219.5L382.5,219.5"></path><path id="kity_path_113" fill="none" stroke="rgb(115, 191, 118)" stroke-width="1" d="M613.5,193.5C598.5,193.5,598.5,271.5,583.5,271.5L417.5,271.5"></path><path id="kity_path_115" fill="none" stroke="rgb(115, 191, 118)" stroke-width="1" d="M724.5,252.5C709.5,252.5,709.5,427.5,694.5,427.5L464.5,427.5"></path><path id="kity_path_117" fill="none" stroke="rgb(115, 191, 118)" stroke-width="1" d="M724.5,252.5C709.5,252.5,709.5,479.5,694.5,479.5L638.5,479.5"></path><path id="kity_path_119" fill="none" stroke="rgb(115, 191, 118)" stroke-width="1" d="M987.5,1273.5A164,545,0,0,0,823.5,728.5"></path><path id="kity_path_121" fill="none" stroke="rgb(115, 191, 118)" stroke-width="1" d="M705.5,728.5C690.5,728.5,690.5,589.5,675.5,589.5L493.5,589.5"></path><path id="kity_path_123" fill="none" stroke="rgb(115, 191, 118)" stroke-width="1" d="M493.5,589.5C478.5,589.5,478.5,637.5,463.5,637.5L233.5,637.5"></path><path id="kity_path_125" fill="none" stroke="rgb(115, 191, 118)" stroke-width="1" d="M705.5,728.5C690.5,728.5,690.5,738.5,675.5,738.5L486.5,738.5"></path><path id="kity_path_127" fill="none" stroke="rgb(115, 191, 118)" stroke-width="1" d="M486.5,738.5C471.5,738.5,471.5,787.5,456.5,787.5L226.5,787.5"></path><path id="kity_path_129" fill="none" stroke="rgb(115, 191, 118)" stroke-width="1" d="M705.5,728.5C690.5,728.5,690.5,895.5,675.5,895.5L546.5,895.5"></path><path id="kity_path_131" fill="none" stroke="rgb(115, 191, 118)" stroke-width="1" d="M546.5,895.5C531.5,895.5,531.5,951.5,516.5,951.5L286.5,951.5"></path><path id="kity_path_133" fill="none" stroke="rgb(115, 191, 118)" stroke-width="1" d="M987.5,1273.5A164,121,0,0,1,823.5,1394.5"></path><path id="kity_path_135" fill="none" stroke="rgb(115, 191, 118)" stroke-width="1" d="M696.5,1394.5C681.5,1394.5,681.5,1057.5,666.5,1057.5L540.5,1057.5"></path><path id="kity_path_137" fill="none" stroke="rgb(115, 191, 118)" stroke-width="1" d="M540.5,1057.5C525.5,1057.5,525.5,1049.5,510.5,1049.5L250.5,1049.5"></path><path id="kity_path_139" fill="none" stroke="rgb(115, 191, 118)" stroke-width="1" d="M540.5,1057.5C525.5,1057.5,525.5,1101.5,510.5,1101.5L394.5,1101.5"></path><path id="kity_path_141" fill="none" stroke="rgb(115, 191, 118)" stroke-width="1" d="M696.5,1394.5C681.5,1394.5,681.5,1197.5,666.5,1197.5L539.5,1197.5"></path><path id="kity_path_143" fill="none" stroke="rgb(115, 191, 118)" stroke-width="1" d="M539.5,1197.5C524.5,1197.5,524.5,1171.5,509.5,1171.5L328.5,1171.5"></path><path id="kity_path_145" fill="none" stroke="rgb(115, 191, 118)" stroke-width="1" d="M539.5,1197.5C524.5,1197.5,524.5,1241.5,509.5,1241.5L210.5,1241.5"></path><path id="kity_path_147" fill="none" stroke="rgb(115, 191, 118)" stroke-width="1" d="M696.5,1394.5C681.5,1394.5,681.5,1430.5,666.5,1430.5L574.5,1430.5"></path><path id="kity_path_149" fill="none" stroke="rgb(115, 191, 118)" stroke-width="1" d="M574.5,1430.5C559.5,1430.5,559.5,1293.5,544.5,1293.5L356.5,1293.5"></path><path id="kity_path_151" fill="none" stroke="rgb(115, 191, 118)" stroke-width="1" d="M574.5,1430.5C559.5,1430.5,559.5,1461.5,544.5,1461.5L314.5,1461.5"></path><path id="kity_path_153" fill="none" stroke="rgb(115, 191, 118)" stroke-width="1" d="M574.5,1430.5C559.5,1430.5,559.5,1567.5,544.5,1567.5L20.5,1567.5"></path><path id="kity_path_155" fill="none" stroke="rgb(115, 191, 118)" stroke-width="1" d="M696.5,1394.5C681.5,1394.5,681.5,1760.5,666.5,1760.5L586.5,1760.5"></path><path id="kity_path_157" fill="none" stroke="rgb(115, 191, 118)" stroke-width="1" d="M586.5,1760.5C571.5,1760.5,571.5,1655.5,556.5,1655.5L301.5,1655.5"></path><path id="kity_path_159" fill="none" stroke="rgb(115, 191, 118)" stroke-width="1" d="M586.5,1760.5C571.5,1760.5,571.5,1725.5,556.5,1725.5L310.5,1725.5"></path><path id="kity_path_161" fill="none" stroke="rgb(115, 191, 118)" stroke-width="1" d="M586.5,1760.5C571.5,1760.5,571.5,1813.5,556.5,1813.5L357.5,1813.5"></path><path id="kity_path_163" fill="none" stroke="rgb(115, 191, 118)" stroke-width="1" d="M586.5,1760.5C571.5,1760.5,571.5,1901.5,556.5,1901.5L250.5,1901.5"></path><path id="kity_path_165" fill="none" stroke="rgb(115, 191, 118)" stroke-width="1" d="M987.5,1273.5A164,1021,0,0,1,823.5,2294.5"></path><path id="kity_path_167" fill="none" stroke="rgb(115, 191, 118)" stroke-width="1" d="M677.5,2294.5C662.5,2294.5,662.5,2091.5,647.5,2091.5L508.5,2091.5"></path><path id="kity_path_169" fill="none" stroke="rgb(115, 191, 118)" stroke-width="1" d="M508.5,2091.5C493.5,2091.5,493.5,1964.5,478.5,1964.5L299.5,1964.5"></path><path id="kity_path_171" fill="none" stroke="rgb(115, 191, 118)" stroke-width="1" d="M508.5,2091.5C493.5,2091.5,493.5,2067.5,478.5,2067.5L354.5,2067.5"></path><path id="kity_path_173" fill="none" stroke="rgb(115, 191, 118)" stroke-width="1" d="M354.5,2067.5C339.5,2067.5,339.5,2118.5,324.5,2118.5L94.5,2118.5"></path><path id="kity_path_175" fill="none" stroke="rgb(115, 191, 118)" stroke-width="1" d="M508.5,2091.5C493.5,2091.5,493.5,2219.5,478.5,2219.5L343.5,2219.5"></path><path id="kity_path_177" fill="none" stroke="rgb(115, 191, 118)" stroke-width="1" d="M343.5,2219.5C328.5,2219.5,328.5,2268.5,313.5,2268.5L83.5,2268.5"></path><path id="kity_path_179" fill="none" stroke="rgb(115, 191, 118)" stroke-width="1" d="M677.5,2294.5C662.5,2294.5,662.5,2388.5,647.5,2388.5L425.5,2388.5"></path><path id="kity_path_181" fill="none" stroke="rgb(115, 191, 118)" stroke-width="1" d="M425.5,2388.5C410.5,2388.5,410.5,2421.5,395.5,2421.5L165.5,2421.5"></path><path id="kity_path_183" fill="none" stroke="rgb(115, 191, 118)" stroke-width="1" d="M677.5,2294.5C662.5,2294.5,662.5,2473.5,647.5,2473.5L411.5,2473.5"></path><path id="kity_path_185" fill="none" stroke="rgb(115, 191, 118)" stroke-width="1" d="M677.5,2294.5C662.5,2294.5,662.5,2525.5,647.5,2525.5L529.5,2525.5"></path></g><g id="minder_node1"><path id="node_outline1" fill="rgb(115, 191, 118)" stroke="rgb(115, 191, 118)" d="M946.5,1253.5h82a5,5,0,0,1,5,5v30a5,5,0,0,1,-5,5h-82a5,5,0,0,1,-5,-5v-30a5,5,0,0,1,5,-5z" stroke-width="3"></path><g id="node_text1" fill="white"><text id="kity_text_22" text-rendering="inherit" font-size="16" dy=".8em" y="1263.0999999046326" x="965.5">Spark</text></g></g><g id="kity_g_12"><path id="kity_path_13" fill="none" stroke="none" d="M965.5,1273.5h0v0h0z"></path></g><g id="kity_g_14"><path id="kity_path_15" fill="none" stroke="none" d="M965.5,1273.5h0v0h0z"></path><path id="kity_path_16" fill="none" stroke="none"></path></g><g id="minder_node2"><g id="node_expander5" style="cursor: pointer;"><path id="kity_path_463" fill="white" stroke="gray" d="M1152.5000030994415,806.4999930411577A6,6,0,1,1,1140.5000030994415,806.4999930411577A6,6,0,1,1,1152.5000030994415,806.4999930411577"></path><path id="kity_path_464" fill="none" stroke="gray" d="M1142.0000030994415,806.4999930411577L1151.0000030994415,806.4999930411577"></path></g><path id="node_outline6" fill="rgb(238, 246, 238)" stroke="rgb(115, 191, 118)" d="M1156.5000030994415,793.4999930411577h63a3,3,0,0,1,3,3v20a3,3,0,0,1,-3,3h-63a3,3,0,0,1,-3,-3v-20a3,3,0,0,1,3,-3z" stroke-width="1"></path><g id="node_text6" fill="black"><text id="kity_text_195" text-rendering="inherit" font-size="14" dy=".8em" y="797.3999928981066" x="1173.5000030994415">算子</text></g></g><g id="minder_node3"><g id="node_expander2" style="cursor: pointer;"><path id="kity_path_454" fill="white" stroke="gray" d="M1262.5000045746565,725.4999918341637A6,6,0,1,1,1250.5000045746565,725.4999918341637A6,6,0,1,1,1262.5000045746565,725.4999918341637"></path><path id="kity_path_455" fill="none" stroke="gray" d="M1252.0000045746565,725.4999918341637L1261.0000045746565,725.4999918341637"></path></g><path id="node_outline3" fill="none" stroke="none" d="M1267.5000045746565,714.4999918341637h146a5,5,0,0,1,5,5v12a5,5,0,0,1,-5,5h-146a5,5,0,0,1,-5,-5v-12a5,5,0,0,1,5,-5z"></path><g id="node_text3" fill="black"><text id="kity_text_189" text-rendering="inherit" font-size="12" dy=".8em" y="717.6999917626381" x="1272.5000045746565">Transformation延迟执行</text></g></g><g id="minder_node4"><g id="node_expander1" style="cursor: pointer;" display="none"><path id="kity_path_451" fill="white" stroke="gray" d="M1657.5000119358301,737.4999929815531A6,6,0,1,1,1645.5000119358301,737.4999929815531A6,6,0,1,1,1657.5000119358301,737.4999929815531"></path><path id="kity_path_452" fill="none" stroke="gray"></path></g><path id="node_outline2" fill="none" stroke="none" d="M1662.5000119358301,661.4999929815531h210a5,5,0,0,1,5,5v142a5,5,0,0,1,-5,5h-210a5,5,0,0,1,-5,-5v-142a5,5,0,0,1,5,-5z"></path><g id="node_text2" fill="black"><text id="kity_text_187" text-rendering="inherit" font-size="12" dy=".8em" y="794.6999929100275" x="1766.5000119358301"> </text></g><image id="kity_image_362" xlink:href="https://kityminder-img.gz.bcebos.com/3035c9b3a83d5f7da3140f792863aac0d67ea438" x="1667.5000119358301" y="666.4999929815531" width="200" height="125"></image></g><g id="minder_node5"><g id="node_expander4" style="cursor: pointer;"><path id="kity_path_460" fill="white" stroke="gray" d="M1262.5000045746565,887.4999942481518A6,6,0,1,1,1250.5000045746565,887.4999942481518A6,6,0,1,1,1262.5000045746565,887.4999942481518"></path><path id="kity_path_461" fill="none" stroke="gray" d="M1252.0000045746565,887.4999942481518L1261.0000045746565,887.4999942481518"></path></g><path id="node_outline5" fill="none" stroke="none" d="M1267.5000045746565,876.4999942481518h48a5,5,0,0,1,5,5v12a5,5,0,0,1,-5,5h-48a5,5,0,0,1,-5,-5v-12a5,5,0,0,1,5,-5z"></path><g id="node_text5" fill="black"><text id="kity_text_193" text-rendering="inherit" font-size="12" dy=".8em" y="879.6999941766262" x="1272.5000045746565">Action</text></g></g><g id="minder_node6"><g id="node_expander3" style="cursor: pointer;" display="none"><path id="kity_path_457" fill="white" stroke="gray" d="M1360.5000075101852,887.9999949336052A6,6,0,1,1,1348.5000075101852,887.9999949336052A6,6,0,1,1,1360.5000075101852,887.9999949336052"></path><path id="kity_path_458" fill="none" stroke="gray"></path></g><path id="node_outline4" fill="none" stroke="none" d="M1365.5000075101852,831.4999949336052h210a5,5,0,0,1,5,5v103a5,5,0,0,1,-5,5h-210a5,5,0,0,1,-5,-5v-103a5,5,0,0,1,5,-5z"></path><g id="node_text4" fill="black"><text id="kity_text_191" text-rendering="inherit" font-size="12" dy=".8em" y="925.6999948620796" x="1469.5000075101852"> </text></g><image id="kity_image_363" xlink:href="https://kityminder-img.gz.bcebos.com/055cd70d8c147c6c13fb9d7df94b3ada31cca97c" x="1370.5000075101852" y="836.4999949336052" width="200" height="86"></image></g><g id="minder_node7"><g id="node_expander10" style="cursor: pointer;"><path id="kity_path_478" fill="white" stroke="gray" d="M1152.5000030994415,1021.4999962449074A6,6,0,1,1,1140.5000030994415,1021.4999962449074A6,6,0,1,1,1152.5000030994415,1021.4999962449074"></path><path id="kity_path_479" fill="none" stroke="gray" d="M1142.0000030994415,1021.4999962449074L1151.0000030994415,1021.4999962449074"></path></g><path id="node_outline11" fill="rgb(238, 246, 238)" stroke="rgb(115, 191, 118)" d="M1156.5000030994415,1008.4999962449074h91a3,3,0,0,1,3,3v20a3,3,0,0,1,-3,3h-91a3,3,0,0,1,-3,-3v-20a3,3,0,0,1,3,-3z" stroke-width="1"></path><g id="node_text11" fill="black"><text id="kity_text_205" text-rendering="inherit" font-size="14" dy=".8em" y="1012.3999961018562" x="1173.5000030994415">部署方式</text></g></g><g id="minder_node8"><g id="node_expander7" style="cursor: pointer;"><path id="kity_path_469" fill="white" stroke="gray" d="M1290.500004991889,995.4999958574772A6,6,0,1,1,1278.500004991889,995.4999958574772A6,6,0,1,1,1290.500004991889,995.4999958574772"></path><path id="kity_path_470" fill="none" stroke="gray" d="M1280.000004991889,995.4999958574772L1289.000004991889,995.4999958574772"></path></g><path id="node_outline8" fill="none" stroke="none" d="M1295.500004991889,984.4999958574772h74a5,5,0,0,1,5,5v12a5,5,0,0,1,-5,5h-74a5,5,0,0,1,-5,-5v-12a5,5,0,0,1,5,-5z"></path><g id="node_text8" fill="black"><text id="kity_text_199" text-rendering="inherit" font-size="12" dy=".8em" y="987.6999957859516" x="1300.500004991889">standalone</text></g></g><g id="minder_node9"><g id="node_expander6" style="cursor: pointer;" display="none"><path id="kity_path_466" fill="white" stroke="gray" d="M1414.500006839633,995.4999958574772A6,6,0,1,1,1402.500006839633,995.4999958574772A6,6,0,1,1,1414.500006839633,995.4999958574772"></path><path id="kity_path_467" fill="none" stroke="gray"></path></g><path id="node_outline7" fill="none" stroke="none" d="M1419.500006839633,984.4999958574772h374a5,5,0,0,1,5,5v12a5,5,0,0,1,-5,5h-374a5,5,0,0,1,-5,-5v-12a5,5,0,0,1,5,-5z"></path><g id="node_text7" fill="black"><text id="kity_text_197" text-rendering="inherit" font-size="12" dy=".8em" y="987.6999957859516" x="1424.500006839633">独立部署Spark集群，包括了Spark master、Spask worker两个角色</text></g></g><g id="minder_node10"><g id="node_expander9" style="cursor: pointer;"><path id="kity_path_475" fill="white" stroke="gray" d="M1290.500004991889,1047.4999966323376A6,6,0,1,1,1278.500004991889,1047.4999966323376A6,6,0,1,1,1290.500004991889,1047.4999966323376"></path><path id="kity_path_476" fill="none" stroke="gray" d="M1280.000004991889,1047.4999966323376L1289.000004991889,1047.4999966323376"></path></g><path id="node_outline10" fill="none" stroke="none" d="M1295.500004991889,1036.4999966323376h54a5,5,0,0,1,5,5v12a5,5,0,0,1,-5,5h-54a5,5,0,0,1,-5,-5v-12a5,5,0,0,1,5,-5z"></path><g id="node_text10" fill="black"><text id="kity_text_203" text-rendering="inherit" font-size="12" dy=".8em" y="1039.699996560812" x="1300.500004991889">on yarn</text></g></g><g id="minder_node11"><g id="node_expander8" style="cursor: pointer;" display="none"><path id="kity_path_472" fill="white" stroke="gray" d="M1394.5000065416098,1047.4999966323376A6,6,0,1,1,1382.5000065416098,1047.4999966323376A6,6,0,1,1,1394.5000065416098,1047.4999966323376"></path><path id="kity_path_473" fill="none" stroke="gray"></path></g><path id="node_outline9" fill="none" stroke="none" d="M1399.5000065416098,1036.4999966323376h157a5,5,0,0,1,5,5v12a5,5,0,0,1,-5,5h-157a5,5,0,0,1,-5,-5v-12a5,5,0,0,1,5,-5z"></path><g id="node_text9" fill="black"><text id="kity_text_201" text-rendering="inherit" font-size="12" dy=".8em" y="1039.699996560812" x="1404.5000065416098">通过yarn资源调度框架实现</text></g></g><g id="minder_node12"><g id="node_expander21" style="cursor: pointer;"><path id="kity_path_511" fill="white" stroke="gray" d="M1152.5000030994415,1256.4999997466803A6,6,0,1,1,1140.5000030994415,1256.4999997466803A6,6,0,1,1,1152.5000030994415,1256.4999997466803"></path><path id="kity_path_512" fill="none" stroke="gray" d="M1142.0000030994415,1256.4999997466803L1151.0000030994415,1256.4999997466803"></path></g><path id="node_outline22" fill="rgb(238, 246, 238)" stroke="rgb(115, 191, 118)" d="M1156.5000030994415,1243.4999997466803h129a3,3,0,0,1,3,3v20a3,3,0,0,1,-3,3h-129a3,3,0,0,1,-3,-3v-20a3,3,0,0,1,3,-3z" stroke-width="1"></path><g id="node_text22" fill="black"><text id="kity_text_228" text-rendering="inherit" font-size="14" dy=".8em" y="1247.399999603629" x="1173.5000030994415">Spark高级特性</text></g></g><g id="minder_node13"><g id="node_expander13" style="cursor: pointer;"><path id="kity_path_487" fill="white" stroke="gray" d="M1328.5000055581331,1135.4999979436398A6,6,0,1,1,1316.5000055581331,1135.4999979436398A6,6,0,1,1,1328.5000055581331,1135.4999979436398"></path><path id="kity_path_488" fill="none" stroke="gray" d="M1318.0000055581331,1135.4999979436398L1327.0000055581331,1135.4999979436398"></path></g><path id="node_outline14" fill="none" stroke="none" d="M1333.5000055581331,1124.4999979436398h73a5,5,0,0,1,5,5v12a5,5,0,0,1,-5,5h-73a5,5,0,0,1,-5,-5v-12a5,5,0,0,1,5,-5z"></path><g id="node_text14" fill="black"><text id="kity_text_211" text-rendering="inherit" font-size="12" dy=".8em" y="1127.6999978721142" x="1338.5000055581331">RDD持久化</text></g></g><g id="minder_node14"><g id="node_expander11" style="cursor: pointer;" display="none"><path id="kity_path_481" fill="white" stroke="gray" d="M1451.500007390976,1109.4999975562096A6,6,0,1,1,1439.500007390976,1109.4999975562096A6,6,0,1,1,1451.500007390976,1109.4999975562096"></path><path id="kity_path_482" fill="none" stroke="gray"></path></g><path id="node_outline12" fill="none" stroke="none" d="M1456.500007390976,1098.4999975562096h178a5,5,0,0,1,5,5v12a5,5,0,0,1,-5,5h-178a5,5,0,0,1,-5,-5v-12a5,5,0,0,1,5,-5z"></path><g id="node_text12" fill="black"><text id="kity_text_207" text-rendering="inherit" font-size="12" dy=".8em" y="1101.699997484684" x="1461.500007390976">多种持久方式，实现数据的复用</text></g></g><g id="minder_node15"><g id="node_expander12" style="cursor: pointer;" display="none"><path id="kity_path_484" fill="white" stroke="gray" d="M1451.500007390976,1161.49999833107A6,6,0,1,1,1439.500007390976,1161.49999833107A6,6,0,1,1,1451.500007390976,1161.49999833107"></path><path id="kity_path_485" fill="none" stroke="gray"></path></g><path id="node_outline13" fill="none" stroke="none" d="M1456.500007390976,1150.49999833107h60a5,5,0,0,1,5,5v12a5,5,0,0,1,-5,5h-60a5,5,0,0,1,-5,-5v-12a5,5,0,0,1,5,-5z"></path><g id="node_text13" fill="black"><text id="kity_text_209" text-rendering="inherit" font-size="12" dy=".8em" y="1153.6999982595444" x="1461.500007390976">分支主题</text></g></g><g id="minder_node16"><g id="node_expander16" style="cursor: pointer;"><path id="kity_path_496" fill="white" stroke="gray" d="M1328.5000055581331,1239.4999994933605A6,6,0,1,1,1316.5000055581331,1239.4999994933605A6,6,0,1,1,1328.5000055581331,1239.4999994933605"></path><path id="kity_path_497" fill="none" stroke="gray" d="M1318.0000055581331,1239.4999994933605L1327.0000055581331,1239.4999994933605"></path></g><path id="node_outline17" fill="none" stroke="none" d="M1333.5000055581331,1228.4999994933605h103a5,5,0,0,1,5,5v12a5,5,0,0,1,-5,5h-103a5,5,0,0,1,-5,-5v-12a5,5,0,0,1,5,-5z"></path><g id="node_text17" fill="black"><text id="kity_text_217" text-rendering="inherit" font-size="12" dy=".8em" y="1231.699999421835" x="1338.5000055581331">RDD checkpoint</text></g></g><g id="minder_node17"><g id="node_expander14" style="cursor: pointer;" display="none"><path id="kity_path_490" fill="white" stroke="gray" d="M1481.5000078380108,1213.4999991059303A6,6,0,1,1,1469.5000078380108,1213.4999991059303A6,6,0,1,1,1481.5000078380108,1213.4999991059303"></path><path id="kity_path_491" fill="none" stroke="gray"></path></g><path id="node_outline15" fill="none" stroke="none" d="M1486.5000078380108,1202.4999991059303h181a5,5,0,0,1,5,5v12a5,5,0,0,1,-5,5h-181a5,5,0,0,1,-5,-5v-12a5,5,0,0,1,5,-5z"></path><g id="node_text15" fill="black"><text id="kity_text_213" text-rendering="inherit" font-size="12" dy=".8em" y="1205.6999990344048" x="1491.5000078380108">将指定RDD存到外部存储系统中</text></g></g><g id="minder_node18"><g id="node_expander15" style="cursor: pointer;" display="none"><path id="kity_path_493" fill="white" stroke="gray" d="M1481.5000078380108,1265.4999998807907A6,6,0,1,1,1469.5000078380108,1265.4999998807907A6,6,0,1,1,1481.5000078380108,1265.4999998807907"></path><path id="kity_path_494" fill="none" stroke="gray"></path></g><path id="node_outline16" fill="none" stroke="none" d="M1486.5000078380108,1254.4999998807907h241a5,5,0,0,1,5,5v12a5,5,0,0,1,-5,5h-241a5,5,0,0,1,-5,-5v-12a5,5,0,0,1,5,-5z"></path><g id="node_text16" fill="black"><text id="kity_text_215" text-rendering="inherit" font-size="12" dy=".8em" y="1257.6999998092651" x="1491.5000078380108">重新启动任务，沿着血缘关系重新计算RDD</text></g></g><g id="minder_node19"><g id="node_expander20" style="cursor: pointer;"><path id="kity_path_508" fill="white" stroke="gray" d="M1328.5000055581331,1378.500001564622A6,6,0,1,1,1316.5000055581331,1378.500001564622A6,6,0,1,1,1328.5000055581331,1378.500001564622"></path><path id="kity_path_509" fill="none" stroke="gray" d="M1318.0000055581331,1378.500001564622L1327.0000055581331,1378.500001564622"></path></g><path id="node_outline21" fill="none" stroke="none" d="M1333.5000055581331,1367.500001564622h145a5,5,0,0,1,5,5v12a5,5,0,0,1,-5,5h-145a5,5,0,0,1,-5,-5v-12a5,5,0,0,1,5,-5z"></path><g id="node_text21" fill="black"><text id="kity_text_226" text-rendering="inherit" font-size="12" dy=".8em" y="1370.7000014930964" x="1338.5000055581331">checkpoint与持久化区别</text></g></g><g id="minder_node20"><g id="node_expander17" style="cursor: pointer;" display="none"><path id="kity_path_499" fill="white" stroke="gray" d="M1523.5000084638596,1326.5000007897615A6,6,0,1,1,1511.5000084638596,1326.5000007897615A6,6,0,1,1,1523.5000084638596,1326.5000007897615"></path><path id="kity_path_500" fill="none" stroke="gray"></path></g><path id="node_outline18" fill="none" stroke="none" d="M1528.5000084638596,1306.5000007897615h325a5,5,0,0,1,5,5v30a5,5,0,0,1,-5,5h-325a5,5,0,0,1,-5,-5v-30a5,5,0,0,1,5,-5z"></path><g id="node_text18" fill="black"><text id="kity_text_219" text-rendering="inherit" font-size="12" dy=".8em" y="1309.700000718236" x="1533.5000084638596">丢失数据：持久化的数据丢失可能性较大</text><text id="kity_text_220" text-rendering="inherit" font-size="12" dy=".8em" y="1327.700000718236" x="1533.5000084638596">，默认存到内存种；checkpoint通常是存储到高可用文件中</text></g></g><g id="minder_node21"><g id="node_expander18" style="cursor: pointer;" display="none"><path id="kity_path_502" fill="white" stroke="gray" d="M1523.5000084638596,1387.5000016987324A6,6,0,1,1,1511.5000084638596,1387.5000016987324A6,6,0,1,1,1523.5000084638596,1387.5000016987324"></path><path id="kity_path_503" fill="none" stroke="gray"></path></g><path id="node_outline19" fill="none" stroke="none" d="M1528.5000084638596,1376.5000016987324h231a5,5,0,0,1,5,5v12a5,5,0,0,1,-5,5h-231a5,5,0,0,1,-5,-5v-12a5,5,0,0,1,5,-5z"></path><g id="node_text19" fill="black"><text id="kity_text_222" text-rendering="inherit" font-size="12" dy=".8em" y="1379.7000016272068" x="1533.5000084638596">持久化不会改变血缘关系，checkpoint会</text></g></g><g id="minder_node22"><g id="node_expander19" style="cursor: pointer;" display="none"><path id="kity_path_505" fill="white" stroke="gray" d="M1523.5000084638596,1439.5000024735928A6,6,0,1,1,1511.5000084638596,1439.5000024735928A6,6,0,1,1,1523.5000084638596,1439.5000024735928"></path><path id="kity_path_506" fill="none" stroke="gray"></path></g><path id="node_outline20" fill="none" stroke="none" d="M1528.5000084638596,1428.5000024735928h281a5,5,0,0,1,5,5v12a5,5,0,0,1,-5,5h-281a5,5,0,0,1,-5,-5v-12a5,5,0,0,1,5,-5z"></path><g id="node_text20" fill="black"><text id="kity_text_224" text-rendering="inherit" font-size="12" dy=".8em" y="1431.7000024020672" x="1533.5000084638596">建议先持久化再checkpoint,这样执行起来速度会快</text></g></g><g id="minder_node23"><g id="node_expander34" style="cursor: pointer;"><path id="kity_path_550" fill="white" stroke="gray" d="M1152.5000030994415,1740.5000069588423A6,6,0,1,1,1140.5000030994415,1740.5000069588423A6,6,0,1,1,1152.5000030994415,1740.5000069588423"></path><path id="kity_path_551" fill="none" stroke="gray" d="M1142.0000030994415,1740.5000069588423L1151.0000030994415,1740.5000069588423"></path></g><path id="node_outline35" fill="rgb(238, 246, 238)" stroke="rgb(115, 191, 118)" d="M1156.5000030994415,1727.5000069588423h101a3,3,0,0,1,3,3v20a3,3,0,0,1,-3,3h-101a3,3,0,0,1,-3,-3v-20a3,3,0,0,1,3,-3z" stroke-width="1"></path><g id="node_text35" fill="black"><text id="kity_text_256" text-rendering="inherit" font-size="14" dy=".8em" y="1731.4000068157911" x="1173.5000030994415">Spark概述</text></g></g><g id="minder_node24"><g id="node_expander24" style="cursor: pointer;"><path id="kity_path_520" fill="white" stroke="gray" d="M1300.5000051409006,1527.500003784895A6,6,0,1,1,1288.5000051409006,1527.500003784895A6,6,0,1,1,1300.5000051409006,1527.500003784895"></path><path id="kity_path_521" fill="none" stroke="gray" d="M1290.0000051409006,1527.500003784895L1299.0000051409006,1527.500003784895"></path></g><path id="node_outline25" fill="none" stroke="none" d="M1305.5000051409006,1516.500003784895h78a5,5,0,0,1,5,5v12a5,5,0,0,1,-5,5h-78a5,5,0,0,1,-5,-5v-12a5,5,0,0,1,5,-5z"></path><g id="node_text25" fill="black"><text id="kity_text_234" text-rendering="inherit" font-size="12" dy=".8em" y="1519.7000037133694" x="1310.5000051409006">Spark是什么</text></g></g><g id="minder_node25"><g id="node_expander22" style="cursor: pointer;" display="none"><path id="kity_path_514" fill="white" stroke="gray" d="M1428.5000070482492,1501.5000033974648A6,6,0,1,1,1416.5000070482492,1501.5000033974648A6,6,0,1,1,1428.5000070482492,1501.5000033974648"></path><path id="kity_path_515" fill="none" stroke="gray"></path></g><path id="node_outline23" fill="none" stroke="none" d="M1433.5000070482492,1490.5000033974648h156a5,5,0,0,1,5,5v12a5,5,0,0,1,-5,5h-156a5,5,0,0,1,-5,-5v-12a5,5,0,0,1,5,-5z"></path><g id="node_text23" fill="black"><text id="kity_text_230" text-rendering="inherit" font-size="12" dy=".8em" y="1493.7000033259392" x="1438.5000070482492">大规模数据分布式计算引擎</text></g></g><g id="minder_node26"><g id="node_expander23" style="cursor: pointer;" display="none"><path id="kity_path_517" fill="white" stroke="gray" d="M1428.5000070482492,1553.5000041723251A6,6,0,1,1,1416.5000070482492,1553.5000041723251A6,6,0,1,1,1428.5000070482492,1553.5000041723251"></path><path id="kity_path_518" fill="none" stroke="gray"></path></g><path id="node_outline24" fill="none" stroke="none" d="M1433.5000070482492,1542.5000041723251h108a5,5,0,0,1,5,5v12a5,5,0,0,1,-5,5h-108a5,5,0,0,1,-5,-5v-12a5,5,0,0,1,5,-5z"></path><g id="node_text24" fill="black"><text id="kity_text_232" text-rendering="inherit" font-size="12" dy=".8em" y="1545.7000041007996" x="1438.5000070482492">基于内存进行计算</text></g></g><g id="minder_node27"><g id="node_expander31" style="cursor: pointer;"><path id="kity_path_541" fill="white" stroke="gray" d="M1300.5000051409006,1753.5000071525574A6,6,0,1,1,1288.5000051409006,1753.5000071525574A6,6,0,1,1,1300.5000051409006,1753.5000071525574"></path><path id="kity_path_542" fill="none" stroke="gray" d="M1290.0000051409006,1753.5000071525574L1299.0000051409006,1753.5000071525574"></path></g><path id="node_outline32" fill="none" stroke="none" d="M1305.5000051409006,1742.5000071525574h103a5,5,0,0,1,5,5v12a5,5,0,0,1,-5,5h-103a5,5,0,0,1,-5,-5v-12a5,5,0,0,1,5,-5z"></path><g id="node_text32" fill="black"><text id="kity_text_250" text-rendering="inherit" font-size="12" dy=".8em" y="1745.7000070810318" x="1310.5000051409006">为什么使用Spark</text></g></g><g id="minder_node28"><g id="node_expander25" style="cursor: pointer;" display="none"><path id="kity_path_523" fill="white" stroke="gray" d="M1453.5000074207783,1605.5000049471855A6,6,0,1,1,1441.5000074207783,1605.5000049471855A6,6,0,1,1,1453.5000074207783,1605.5000049471855"></path><path id="kity_path_524" fill="none" stroke="gray"></path></g><path id="node_outline26" fill="none" stroke="none" d="M1458.5000074207783,1594.5000049471855h429a5,5,0,0,1,5,5v12a5,5,0,0,1,-5,5h-429a5,5,0,0,1,-5,-5v-12a5,5,0,0,1,5,-5z"></path><g id="node_text26" fill="black"><text id="kity_text_236" text-rendering="inherit" font-size="12" dy=".8em" y="1597.70000487566" x="1463.5000074207783">多样性：可以对接不同存储、olap、oltp系统，如clickhouse、hdfs、hbase等</text></g></g><g id="minder_node29"><g id="node_expander26" style="cursor: pointer;" display="none"><path id="kity_path_526" fill="white" stroke="gray" d="M1453.5000074207783,1657.500005722046A6,6,0,1,1,1441.5000074207783,1657.500005722046A6,6,0,1,1,1453.5000074207783,1657.500005722046"></path><path id="kity_path_527" fill="none" stroke="gray"></path></g><path id="node_outline27" fill="none" stroke="none" d="M1458.5000074207783,1646.500005722046h454a5,5,0,0,1,5,5v12a5,5,0,0,1,-5,5h-454a5,5,0,0,1,-5,-5v-12a5,5,0,0,1,5,-5z"></path><g id="node_text27" fill="black"><text id="kity_text_238" text-rendering="inherit" font-size="12" dy=".8em" y="1649.7000056505203" x="1463.5000074207783">易用性：提供多种不同算子API、容易整合开发，还支持sql方式、提供多种编程语言</text></g></g><g id="minder_node30"><g id="node_expander27" style="cursor: pointer;" display="none"><path id="kity_path_529" fill="white" stroke="gray" d="M1453.5000074207783,1709.5000064969063A6,6,0,1,1,1441.5000074207783,1709.5000064969063A6,6,0,1,1,1453.5000074207783,1709.5000064969063"></path><path id="kity_path_530" fill="none" stroke="gray"></path></g><path id="node_outline28" fill="none" stroke="none" d="M1458.5000074207783,1698.5000064969063h249a5,5,0,0,1,5,5v12a5,5,0,0,1,-5,5h-249a5,5,0,0,1,-5,-5v-12a5,5,0,0,1,5,-5z"></path><g id="node_text28" fill="black"><text id="kity_text_240" text-rendering="inherit" font-size="12" dy=".8em" y="1701.7000064253807" x="1463.5000074207783">速度快：基于内存+磁盘计算，先内存后磁盘</text></g></g><g id="minder_node31"><g id="node_expander28" style="cursor: pointer;" display="none"><path id="kity_path_532" fill="white" stroke="gray" d="M1453.5000074207783,1761.5000072717667A6,6,0,1,1,1441.5000074207783,1761.5000072717667A6,6,0,1,1,1453.5000074207783,1761.5000072717667"></path><path id="kity_path_533" fill="none" stroke="gray"></path></g><path id="node_outline29" fill="none" stroke="none" d="M1458.5000074207783,1750.5000072717667h470a5,5,0,0,1,5,5v12a5,5,0,0,1,-5,5h-470a5,5,0,0,1,-5,-5v-12a5,5,0,0,1,5,-5z"></path><g id="node_text29" fill="black"><text id="kity_text_242" text-rendering="inherit" font-size="12" dy=".8em" y="1753.700007200241" x="1463.5000074207783">容错性：能恢复运行失败的任务。一般通过checkpoint+RDD血缘跟踪进行任务的恢复</text></g></g><g id="minder_node32"><g id="node_expander29" style="cursor: pointer;" display="none"><path id="kity_path_535" fill="white" stroke="gray" d="M1453.5000074207783,1831.500008314848A6,6,0,1,1,1441.5000074207783,1831.500008314848A6,6,0,1,1,1453.5000074207783,1831.500008314848"></path><path id="kity_path_536" fill="none" stroke="gray"></path></g><path id="node_outline30" fill="none" stroke="none" d="M1458.5000074207783,1802.500008314848h232a5,5,0,0,1,5,5v48a5,5,0,0,1,-5,5h-232a5,5,0,0,1,-5,-5v-48a5,5,0,0,1,5,-5z"></path><g id="node_text30" fill="black"><text id="kity_text_244" text-rendering="inherit" font-size="12" dy=".8em" y="1805.7000082433224" x="1463.5000074207783">生态圈相对较为完全，包括了Spark Sql、</text><text id="kity_text_245" text-rendering="inherit" font-size="12" dy=".8em" y="1823.7000082433224" x="1463.5000074207783">Spark Streaming、MLib、GraphX,</text><text id="kity_text_246" text-rendering="inherit" font-size="12" dy=".8em" y="1841.7000082433224" x="1463.5000074207783">社区活跃度好、产品成熟使用案例多、</text></g></g><g id="minder_node33"><g id="node_expander30" style="cursor: pointer;" display="none"><path id="kity_path_538" fill="white" stroke="gray" d="M1453.5000074207783,1901.5000093579292A6,6,0,1,1,1441.5000074207783,1901.5000093579292A6,6,0,1,1,1453.5000074207783,1901.5000093579292"></path><path id="kity_path_539" fill="none" stroke="gray"></path></g><path id="node_outline31" fill="none" stroke="none" d="M1458.5000074207783,1890.5000093579292h321a5,5,0,0,1,5,5v12a5,5,0,0,1,-5,5h-321a5,5,0,0,1,-5,-5v-12a5,5,0,0,1,5,-5z"></path><g id="node_text31" fill="black"><text id="kity_text_248" text-rendering="inherit" font-size="12" dy=".8em" y="1893.7000092864037" x="1463.5000074207783">计算模型：不像MapReduce那样只有map+reduce的阶段</text></g></g><g id="minder_node34"><g id="node_expander33" style="cursor: pointer;"><path id="kity_path_547" fill="white" stroke="gray" d="M1300.5000051409006,1953.5000101327896A6,6,0,1,1,1288.5000051409006,1953.5000101327896A6,6,0,1,1,1300.5000051409006,1953.5000101327896"></path><path id="kity_path_548" fill="none" stroke="gray" d="M1290.0000051409006,1953.5000101327896L1299.0000051409006,1953.5000101327896"></path></g><path id="node_outline34" fill="none" stroke="none" d="M1305.5000051409006,1942.5000101327896h59a5,5,0,0,1,5,5v12a5,5,0,0,1,-5,5h-59a5,5,0,0,1,-5,-5v-12a5,5,0,0,1,5,-5z"></path><g id="node_text34" fill="black"><text id="kity_text_254" text-rendering="inherit" font-size="12" dy=".8em" y="1945.700010061264" x="1310.5000051409006">使用场景</text></g></g><g id="minder_node35"><g id="node_expander32" style="cursor: pointer;" display="none"><path id="kity_path_544" fill="white" stroke="gray" d="M1409.5000067651272,1953.5000101327896A6,6,0,1,1,1397.5000067651272,1953.5000101327896A6,6,0,1,1,1409.5000067651272,1953.5000101327896"></path><path id="kity_path_545" fill="none" stroke="gray"></path></g><path id="node_outline33" fill="none" stroke="none" d="M1414.5000067651272,1942.5000101327896h155a5,5,0,0,1,5,5v12a5,5,0,0,1,-5,5h-155a5,5,0,0,1,-5,-5v-12a5,5,0,0,1,5,-5z"></path><g id="node_text33" fill="black"><text id="kity_text_252" text-rendering="inherit" font-size="12" dy=".8em" y="1945.700010061264" x="1419.5000067651272">支持离线与分钟级实时场景</text></g></g><g id="minder_node36"><g id="node_expander44" style="cursor: pointer;"><path id="kity_path_580" fill="white" stroke="gray" d="M834.4999967068434,252.49998478591442A6,6,0,1,1,822.4999967068434,252.49998478591442A6,6,0,1,1,834.4999967068434,252.49998478591442"></path><path id="kity_path_581" fill="none" stroke="gray" d="M823.9999967068434,252.49998478591442L832.9999967068434,252.49998478591442"></path></g><path id="node_outline45" fill="rgb(238, 246, 238)" stroke="rgb(115, 191, 118)" d="M727.4999967068434,239.49998478591442h91a3,3,0,0,1,3,3v20a3,3,0,0,1,-3,3h-91a3,3,0,0,1,-3,-3v-20a3,3,0,0,1,3,-3z" stroke-width="1"></path><g id="node_text45" fill="black"><text id="kity_text_277" text-rendering="inherit" font-size="14" dy=".8em" y="243.39998464286327" x="744.4999967068434">原理分析</text></g></g><g id="minder_node37"><g id="node_expander36" style="cursor: pointer;"><path id="kity_path_556" fill="white" stroke="gray" d="M696.4999947398901,40.49998162686825A6,6,0,1,1,684.4999947398901,40.49998162686825A6,6,0,1,1,696.4999947398901,40.49998162686825"></path><path id="kity_path_557" fill="none" stroke="gray" d="M685.9999947398901,40.49998162686825L694.9999947398901,40.49998162686825"></path></g><path id="node_outline37" fill="none" stroke="none" d="M607.4999947398901,29.499981626868248h72a5,5,0,0,1,5,5v12a5,5,0,0,1,-5,5h-72a5,5,0,0,1,-5,-5v-12a5,5,0,0,1,5,-5z"></path><g id="node_text37" fill="black"><text id="kity_text_261" text-rendering="inherit" font-size="12" dy=".8em" y="32.699981555342674" x="612.4999947398901">RDD是什么</text></g></g><g id="minder_node38"><g id="node_expander35" style="cursor: pointer;" display="none"><path id="kity_path_553" fill="white" stroke="gray" d="M574.4999915510416,40.49998162686825A6,6,0,1,1,562.4999915510416,40.49998162686825A6,6,0,1,1,574.4999915510416,40.49998162686825"></path><path id="kity_path_554" fill="none" stroke="gray"></path></g><path id="node_outline36" fill="none" stroke="none" d="M393.4999915510416,20.499981626868248h164a5,5,0,0,1,5,5v30a5,5,0,0,1,-5,5h-164a5,5,0,0,1,-5,-5v-30a5,5,0,0,1,5,-5z"></path><g id="node_text36" fill="black"><text id="kity_text_258" text-rendering="inherit" font-size="12" dy=".8em" y="23.699981555342674" x="398.4999915510416">RDD是Spark提供核心抽象，</text><text id="kity_text_259" text-rendering="inherit" font-size="12" dy=".8em" y="41.699981555342674" x="398.4999915510416">是弹性分布式数据集</text></g></g><g id="minder_node39"><g id="node_expander41" style="cursor: pointer;"><path id="kity_path_571" fill="white" stroke="gray" d="M696.4999949038029,179.49998369812965A6,6,0,1,1,684.4999949038029,179.49998369812965A6,6,0,1,1,696.4999949038029,179.49998369812965"></path><path id="kity_path_572" fill="none" stroke="gray" d="M685.9999949038029,179.49998369812965L694.9999949038029,179.49998369812965"></path></g><path id="node_outline42" fill="none" stroke="none" d="M618.4999949038029,168.49998369812965h61a5,5,0,0,1,5,5v12a5,5,0,0,1,-5,5h-61a5,5,0,0,1,-5,-5v-12a5,5,0,0,1,5,-5z"></path><g id="node_text42" fill="black"><text id="kity_text_271" text-rendering="inherit" font-size="12" dy=".8em" y="171.69998362660408" x="623.4999949038029">RDD特性</text></g></g><g id="minder_node40"><g id="node_expander37" style="cursor: pointer;" display="none"><path id="kity_path_559" fill="white" stroke="gray" d="M585.4999923706055,101.49998253583908A6,6,0,1,1,573.4999923706055,101.49998253583908A6,6,0,1,1,585.4999923706055,101.49998253583908"></path><path id="kity_path_560" fill="none" stroke="gray"></path></g><path id="node_outline38" fill="none" stroke="none" d="M448.49999237060547,90.49998253583908h120a5,5,0,0,1,5,5v12a5,5,0,0,1,-5,5h-120a5,5,0,0,1,-5,-5v-12a5,5,0,0,1,5,-5z"></path><g id="node_text38" fill="black"><text id="kity_text_263" text-rendering="inherit" font-size="12" dy=".8em" y="93.6999824643135" x="453.49999237060547">弹性：先内存后磁盘</text></g></g><g id="minder_node41"><g id="node_expander38" style="cursor: pointer;" display="none"><path id="kity_path_562" fill="white" stroke="gray" d="M585.4999901950359,153.49998331069946A6,6,0,1,1,573.4999901950359,153.49998331069946A6,6,0,1,1,585.4999901950359,153.49998331069946"></path><path id="kity_path_563" fill="none" stroke="gray"></path></g><path id="node_outline39" fill="none" stroke="none" d="M302.49999019503593,142.49998331069946h266a5,5,0,0,1,5,5v12a5,5,0,0,1,-5,5h-266a5,5,0,0,1,-5,-5v-12a5,5,0,0,1,5,-5z"></path><g id="node_text39" fill="black"><text id="kity_text_265" text-rendering="inherit" font-size="12" dy=".8em" y="145.6999832391739" x="307.49999019503593">容错：RDD可通过血缘关系恢复失败运行的任务</text></g></g><g id="minder_node42"><g id="node_expander39" style="cursor: pointer;" display="none"><path id="kity_path_565" fill="white" stroke="gray" d="M585.4999914616346,205.49998408555984A6,6,0,1,1,573.4999914616346,205.49998408555984A6,6,0,1,1,585.4999914616346,205.49998408555984"></path><path id="kity_path_566" fill="none" stroke="gray"></path></g><path id="node_outline40" fill="none" stroke="none" d="M387.49999146163464,194.49998408555984h181a5,5,0,0,1,5,5v12a5,5,0,0,1,-5,5h-181a5,5,0,0,1,-5,-5v-12a5,5,0,0,1,5,-5z"></path><g id="node_text40" fill="black"><text id="kity_text_267" text-rendering="inherit" font-size="12" dy=".8em" y="197.69998401403427" x="392.49999146163464">分布式：RDD作用在不同分区上</text></g></g><g id="minder_node43"><g id="node_expander40" style="cursor: pointer;" display="none"><path id="kity_path_568" fill="white" stroke="gray" d="M585.4999919831753,257.4999848604202A6,6,0,1,1,573.4999919831753,257.4999848604202A6,6,0,1,1,585.4999919831753,257.4999848604202"></path><path id="kity_path_569" fill="none" stroke="gray"></path></g><path id="node_outline41" fill="none" stroke="none" d="M422.4999919831753,246.49998486042023h146a5,5,0,0,1,5,5v12a5,5,0,0,1,-5,5h-146a5,5,0,0,1,-5,-5v-12a5,5,0,0,1,5,-5z"></path><g id="node_text41" fill="black"><text id="kity_text_269" text-rendering="inherit" font-size="12" dy=".8em" y="249.69998478889465" x="427.4999919831753">RDD可以依赖不同的RDD</text></g></g><g id="minder_node44"><g id="node_expander42" style="cursor: pointer;" display="none"><path id="kity_path_574" fill="white" stroke="gray" d="M696.4999937415123,361.4999871850014A6,6,0,1,1,684.4999937415123,361.4999871850014A6,6,0,1,1,696.4999937415123,361.4999871850014"></path><path id="kity_path_575" fill="none" stroke="gray"></path></g><path id="node_outline43" fill="none" stroke="none" d="M469.4999937415123,298.4999871850014h210a5,5,0,0,1,5,5v116a5,5,0,0,1,-5,5h-210a5,5,0,0,1,-5,-5v-116a5,5,0,0,1,5,-5z"></path><g id="node_text43" fill="black"><text id="kity_text_273" text-rendering="inherit" font-size="12" dy=".8em" y="405.6999871134758" x="545.4999937415123">Spark原理</text></g><image id="kity_image_364" xlink:href="https://kityminder-img.gz.bcebos.com/7989742726f02785e4c161d4b4dc040b3e57ba67" x="474.4999937415123" y="303.4999871850014" width="200" height="99"></image></g><g id="minder_node45"><g id="node_expander43" style="cursor: pointer;" display="none"><path id="kity_path_577" fill="white" stroke="gray" d="M696.4999952763319,465.49998795986176A6,6,0,1,1,684.4999952763319,465.49998795986176A6,6,0,1,1,696.4999952763319,465.49998795986176"></path><path id="kity_path_578" fill="none" stroke="gray"></path></g><path id="node_outline44" fill="none" stroke="none" d="M643.4999952763319,454.49998795986176h36a5,5,0,0,1,5,5v12a5,5,0,0,1,-5,5h-36a5,5,0,0,1,-5,-5v-12a5,5,0,0,1,5,-5z"></path><g id="node_text44" fill="black"><text id="kity_text_275" text-rendering="inherit" font-size="12" dy=".8em" y="457.6999878883362" x="648.4999952763319">RDD</text></g></g><g id="minder_node46"><g id="node_expander51" style="cursor: pointer;"><path id="kity_path_601" fill="white" stroke="gray" d="M834.4999964237213,728.4999918788671A6,6,0,1,1,822.4999964237213,728.4999918788671A6,6,0,1,1,834.4999964237213,728.4999918788671"></path><path id="kity_path_602" fill="none" stroke="gray" d="M823.9999964237213,728.4999918788671L832.9999964237213,728.4999918788671"></path></g><path id="node_outline52" fill="rgb(238, 246, 238)" stroke="rgb(115, 191, 118)" d="M708.4999964237213,715.4999918788671h110a3,3,0,0,1,3,3v20a3,3,0,0,1,-3,3h-110a3,3,0,0,1,-3,-3v-20a3,3,0,0,1,3,-3z" stroke-width="1"></path><g id="node_text52" fill="black"><text id="kity_text_291" text-rendering="inherit" font-size="14" dy=".8em" y="719.399991735816" x="725.4999964237213">Shuffle原理</text></g></g><g id="minder_node47"><g id="node_expander46" style="cursor: pointer;"><path id="kity_path_586" fill="white" stroke="gray" d="M677.4999931156635,575.4999895989895A6,6,0,1,1,665.4999931156635,575.4999895989895A6,6,0,1,1,677.4999931156635,575.4999895989895"></path><path id="kity_path_587" fill="none" stroke="gray" d="M666.9999931156635,575.4999895989895L675.9999931156635,575.4999895989895"></path></g><path id="node_outline47" fill="none" stroke="none" d="M498.49999311566353,564.4999895989895h162a5,5,0,0,1,5,5v12a5,5,0,0,1,-5,5h-162a5,5,0,0,1,-5,-5v-12a5,5,0,0,1,5,-5z"></path><g id="node_text47" fill="black"><text id="kity_text_281" text-rendering="inherit" font-size="12" dy=".8em" y="567.6999895274639" x="503.49999311566353">未优化的Hash Base Shuffle</text></g></g><g id="minder_node48"><g id="node_expander45" style="cursor: pointer;" display="none"><path id="kity_path_583" fill="white" stroke="gray" d="M465.4999907165766,575.4999903142452A6,6,0,1,1,453.4999907165766,575.4999903142452A6,6,0,1,1,465.4999907165766,575.4999903142452"></path><path id="kity_path_584" fill="none" stroke="gray"></path></g><path id="node_outline46" fill="none" stroke="none" d="M238.49999071657658,516.4999903142452h210a5,5,0,0,1,5,5v108a5,5,0,0,1,-5,5h-210a5,5,0,0,1,-5,-5v-108a5,5,0,0,1,5,-5z"></path><g id="node_text46" fill="black"><text id="kity_text_279" text-rendering="inherit" font-size="12" dy=".8em" y="615.6999902427197" x="342.4999907165766"> </text></g><image id="kity_image_365" xlink:href="https://kityminder-img.gz.bcebos.com/538a1698f6cc43fe937507fbaddff704a1b34a04" x="243.49999071657658" y="521.4999903142452" width="200" height="91"></image></g><g id="minder_node49"><g id="node_expander48" style="cursor: pointer;"><path id="kity_path_592" fill="white" stroke="gray" d="M677.4999930113554,724.4999918192625A6,6,0,1,1,665.4999930113554,724.4999918192625A6,6,0,1,1,677.4999930113554,724.4999918192625"></path><path id="kity_path_593" fill="none" stroke="gray" d="M666.9999930113554,724.4999918192625L675.9999930113554,724.4999918192625"></path></g><path id="node_outline49" fill="none" stroke="none" d="M491.4999930113554,713.4999918192625h169a5,5,0,0,1,5,5v12a5,5,0,0,1,-5,5h-169a5,5,0,0,1,-5,-5v-12a5,5,0,0,1,5,-5z"></path><g id="node_text49" fill="black"><text id="kity_text_285" text-rendering="inherit" font-size="12" dy=".8em" y="716.6999917477369" x="496.4999930113554">优化后的Hash Based Shuffle</text></g></g><g id="minder_node50"><g id="node_expander47" style="cursor: pointer;" display="none"><path id="kity_path_589" fill="white" stroke="gray" d="M458.49999061226845,724.4999925494194A6,6,0,1,1,446.49999061226845,724.4999925494194A6,6,0,1,1,458.49999061226845,724.4999925494194"></path><path id="kity_path_590" fill="none" stroke="gray"></path></g><path id="node_outline48" fill="none" stroke="none" d="M231.49999061226845,664.4999925494194h210a5,5,0,0,1,5,5v110a5,5,0,0,1,-5,5h-210a5,5,0,0,1,-5,-5v-110a5,5,0,0,1,5,-5z"></path><g id="node_text48" fill="black"><text id="kity_text_283" text-rendering="inherit" font-size="12" dy=".8em" y="765.6999924778938" x="335.49999061226845"> </text></g><image id="kity_image_366" xlink:href="https://kityminder-img.gz.bcebos.com/aec8edfb60aad08bd2fbc995d3e3e702f8be2365" x="236.49999061226845" y="669.4999925494194" width="200" height="93"></image></g><g id="minder_node51"><g id="node_expander50" style="cursor: pointer;"><path id="kity_path_598" fill="white" stroke="gray" d="M677.4999939054251,881.4999941587448A6,6,0,1,1,665.4999939054251,881.4999941587448A6,6,0,1,1,677.4999939054251,881.4999941587448"></path><path id="kity_path_599" fill="none" stroke="gray" d="M666.9999939054251,881.4999941587448L675.9999939054251,881.4999941587448"></path></g><path id="node_outline51" fill="none" stroke="none" d="M551.4999939054251,870.4999941587448h109a5,5,0,0,1,5,5v12a5,5,0,0,1,-5,5h-109a5,5,0,0,1,-5,-5v-12a5,5,0,0,1,5,-5z"></path><g id="node_text51" fill="black"><text id="kity_text_289" text-rendering="inherit" font-size="12" dy=".8em" y="873.6999940872192" x="556.4999939054251">Sort-Base Shuffle</text></g></g><g id="minder_node52"><g id="node_expander49" style="cursor: pointer;" display="none"><path id="kity_path_595" fill="white" stroke="gray" d="M518.4999915063381,881.4999949932098A6,6,0,1,1,506.4999915063381,881.4999949932098A6,6,0,1,1,518.4999915063381,881.4999949932098"></path><path id="kity_path_596" fill="none" stroke="gray"></path></g><path id="node_outline50" fill="none" stroke="none" d="M291.4999915063381,814.4999949932098h210a5,5,0,0,1,5,5v124a5,5,0,0,1,-5,5h-210a5,5,0,0,1,-5,-5v-124a5,5,0,0,1,5,-5z"></path><g id="node_text50" fill="black"><text id="kity_text_287" text-rendering="inherit" font-size="12" dy=".8em" y="929.6999949216843" x="395.4999915063381"> </text></g><image id="kity_image_367" xlink:href="https://kityminder-img.gz.bcebos.com/5141f0d225c568834bd7c9939cc1202d139969ed" x="296.4999915063381" y="819.4999949932098" width="200" height="107"></image></g><g id="minder_node53"><g id="node_expander67" style="cursor: pointer;"><path id="kity_path_649" fill="white" stroke="gray" d="M834.4999962896109,1394.5000018030405A6,6,0,1,1,822.4999962896109,1394.5000018030405A6,6,0,1,1,834.4999962896109,1394.5000018030405"></path><path id="kity_path_650" fill="none" stroke="gray" d="M823.9999962896109,1394.5000018030405L832.9999962896109,1394.5000018030405"></path></g><path id="node_outline68" fill="rgb(238, 246, 238)" stroke="rgb(115, 191, 118)" d="M699.4999962896109,1381.5000018030405h119a3,3,0,0,1,3,3v20a3,3,0,0,1,-3,3h-119a3,3,0,0,1,-3,-3v-20a3,3,0,0,1,3,-3z" stroke-width="1"></path><g id="node_text68" fill="black"><text id="kity_text_337" text-rendering="inherit" font-size="14" dy=".8em" y="1385.4000016599894" x="716.4999962896109">性能优化分析</text></g></g><g id="minder_node54"><g id="node_expander54" style="cursor: pointer;"><path id="kity_path_610" fill="white" stroke="gray" d="M668.4999938160181,1043.499996572733A6,6,0,1,1,656.4999938160181,1043.499996572733A6,6,0,1,1,668.4999938160181,1043.499996572733"></path><path id="kity_path_611" fill="none" stroke="gray" d="M657.9999938160181,1043.499996572733L666.9999938160181,1043.499996572733"></path></g><path id="node_outline55" fill="none" stroke="none" d="M545.4999938160181,1032.499996572733h106a5,5,0,0,1,5,5v12a5,5,0,0,1,-5,5h-106a5,5,0,0,1,-5,-5v-12a5,5,0,0,1,5,-5z"></path><g id="node_text55" fill="black"><text id="kity_text_299" text-rendering="inherit" font-size="12" dy=".8em" y="1035.6999965012074" x="550.4999938160181">高性能序列化类库</text></g></g><g id="minder_node55"><g id="node_expander52" style="cursor: pointer;" display="none"><path id="kity_path_604" fill="white" stroke="gray" d="M512.4999894946814,1017.4999961853027A6,6,0,1,1,500.49998949468136,1017.4999961853027A6,6,0,1,1,512.4999894946814,1017.4999961853027"></path><path id="kity_path_605" fill="none" stroke="gray"></path></g><path id="node_outline53" fill="none" stroke="none" d="M255.49998949468136,988.4999961853027h240a5,5,0,0,1,5,5v48a5,5,0,0,1,-5,5h-240a5,5,0,0,1,-5,-5v-48a5,5,0,0,1,5,-5z"></path><g id="node_text53" fill="black"><text id="kity_text_293" text-rendering="inherit" font-size="12" dy=".8em" y="991.6999961137772" x="260.49998949468136">Kryo序列化：</text><text id="kity_text_294" text-rendering="inherit" font-size="12" dy=".8em" y="1009.6999961137772" x="260.49998949468136">优点：更快、更小，</text><text id="kity_text_295" text-rendering="inherit" font-size="12" dy=".8em" y="1027.6999961137772" x="260.49998949468136">缺点：不是所有类型都能序列化；使用繁琐</text></g></g><g id="minder_node56"><g id="node_expander53" style="cursor: pointer;" display="none"><path id="kity_path_607" fill="white" stroke="gray" d="M512.4999916404486,1087.499997228384A6,6,0,1,1,500.49999164044857,1087.499997228384A6,6,0,1,1,512.4999916404486,1087.499997228384"></path><path id="kity_path_608" fill="none" stroke="gray"></path></g><path id="node_outline54" fill="none" stroke="none" d="M399.49999164044857,1076.499997228384h96a5,5,0,0,1,5,5v12a5,5,0,0,1,-5,5h-96a5,5,0,0,1,-5,-5v-12a5,5,0,0,1,5,-5z"></path><g id="node_text54" fill="black"><text id="kity_text_297" text-rendering="inherit" font-size="12" dy=".8em" y="1079.6999971568584" x="404.49999164044857">Java内置序列化</text></g></g><g id="minder_node57"><g id="node_expander57" style="cursor: pointer;"><path id="kity_path_619" fill="white" stroke="gray" d="M668.499993801117,1183.4999986588955A6,6,0,1,1,656.499993801117,1183.4999986588955A6,6,0,1,1,668.499993801117,1183.4999986588955"></path><path id="kity_path_620" fill="none" stroke="gray" d="M657.999993801117,1183.4999986588955L666.999993801117,1183.4999986588955"></path></g><path id="node_outline58" fill="none" stroke="none" d="M544.499993801117,1172.4999986588955h107a5,5,0,0,1,5,5v12a5,5,0,0,1,-5,5h-107a5,5,0,0,1,-5,-5v-12a5,5,0,0,1,5,-5z"></path><g id="node_text58" fill="black"><text id="kity_text_307" text-rendering="inherit" font-size="12" dy=".8em" y="1175.69999858737" x="549.499993801117">JVM垃圾回收调优</text></g></g><g id="minder_node58"><g id="node_expander55" style="cursor: pointer;" display="none"><path id="kity_path_613" fill="white" stroke="gray" d="M511.49999065697193,1148.4999981373549A6,6,0,1,1,499.49999065697193,1148.4999981373549A6,6,0,1,1,511.49999065697193,1148.4999981373549"></path><path id="kity_path_614" fill="none" stroke="gray"></path></g><path id="node_outline56" fill="none" stroke="none" d="M333.49999065697193,1128.4999981373549h161a5,5,0,0,1,5,5v30a5,5,0,0,1,-5,5h-161a5,5,0,0,1,-5,-5v-30a5,5,0,0,1,5,-5z"></path><g id="node_text56" fill="black"><text id="kity_text_301" text-rendering="inherit" font-size="12" dy=".8em" y="1131.6999980658293" x="338.49999065697193">原因：频繁GC会导致大部分</text><text id="kity_text_302" text-rendering="inherit" font-size="12" dy=".8em" y="1149.6999980658293" x="338.49999065697193">时间消耗在垃圾回收上</text></g></g><g id="minder_node59"><g id="node_expander56" style="cursor: pointer;" display="none"><path id="kity_path_616" fill="white" stroke="gray" d="M511.4999888986349,1218.4999991804361A6,6,0,1,1,499.4999888986349,1218.4999991804361A6,6,0,1,1,511.4999888986349,1218.4999991804361"></path><path id="kity_path_617" fill="none" stroke="gray"></path></g><path id="node_outline57" fill="none" stroke="none" d="M215.4999888986349,1198.4999991804361h279a5,5,0,0,1,5,5v30a5,5,0,0,1,-5,5h-279a5,5,0,0,1,-5,-5v-30a5,5,0,0,1,5,-5z"></path><g id="node_text57" fill="black"><text id="kity_text_304" text-rendering="inherit" font-size="12" dy=".8em" y="1201.6999991089106" x="220.4999888986349">调优参数：</text><text id="kity_text_305" text-rendering="inherit" font-size="12" dy=".8em" y="1219.6999991089106" x="220.4999888986349">1.spark.storage.memoryFraction：修改内存比例</text></g></g><g id="minder_node60"><g id="node_expander61" style="cursor: pointer;"><path id="kity_path_631" fill="white" stroke="gray" d="M668.4999943226576,1416.500002130866A6,6,0,1,1,656.4999943226576,1416.500002130866A6,6,0,1,1,668.4999943226576,1416.500002130866"></path><path id="kity_path_632" fill="none" stroke="gray" d="M657.9999943226576,1416.500002130866L666.9999943226576,1416.500002130866"></path></g><path id="node_outline62" fill="none" stroke="none" d="M579.4999943226576,1405.500002130866h72a5,5,0,0,1,5,5v12a5,5,0,0,1,-5,5h-72a5,5,0,0,1,-5,-5v-12a5,5,0,0,1,5,-5z"></path><g id="node_text62" fill="black"><text id="kity_text_318" text-rendering="inherit" font-size="12" dy=".8em" y="1408.7000020593405" x="584.4999943226576">数据本地化</text></g></g><g id="minder_node61"><g id="node_expander58" style="cursor: pointer;" display="none"><path id="kity_path_622" fill="white" stroke="gray" d="M546.4999910742044,1279.500000089407A6,6,0,1,1,534.4999910742044,1279.500000089407A6,6,0,1,1,546.4999910742044,1279.500000089407"></path><path id="kity_path_623" fill="none" stroke="gray"></path></g><path id="node_outline59" fill="none" stroke="none" d="M361.49999107420444,1268.500000089407h168a5,5,0,0,1,5,5v12a5,5,0,0,1,-5,5h-168a5,5,0,0,1,-5,-5v-12a5,5,0,0,1,5,-5z"></path><g id="node_text59" fill="black"><text id="kity_text_309" text-rendering="inherit" font-size="12" dy=".8em" y="1271.7000000178814" x="366.49999107420444">理念：移动算法优于移动数据</text></g></g><g id="minder_node62"><g id="node_expander59" style="cursor: pointer;" display="none"><path id="kity_path_625" fill="white" stroke="gray" d="M546.4999919235706,1389.500002592802A6,6,0,1,1,534.4999919235706,1389.500002592802A6,6,0,1,1,546.4999919235706,1389.500002592802"></path><path id="kity_path_626" fill="none" stroke="gray"></path></g><path id="node_outline60" fill="none" stroke="none" d="M319.49999192357063,1320.500002592802h210a5,5,0,0,1,5,5v128a5,5,0,0,1,-5,5h-210a5,5,0,0,1,-5,-5v-128a5,5,0,0,1,5,-5z"></path><g id="node_text60" fill="black"><text id="kity_text_311" text-rendering="inherit" font-size="12" dy=".8em" y="1439.7000025212765" x="423.49999192357063"> </text></g><image id="kity_image_368" xlink:href="https://kityminder-img.gz.bcebos.com/e33f8fd1fa09afb0d25212e1dd8c1d5c50be5355" x="324.49999192357063" y="1325.500002592802" width="200" height="111"></image></g><g id="minder_node63"><g id="node_expander60" style="cursor: pointer;" display="none"><path id="kity_path_628" fill="white" stroke="gray" d="M546.4999860674143,1526.5000037699938A6,6,0,1,1,534.4999860674143,1526.5000037699938A6,6,0,1,1,546.4999860674143,1526.5000037699938"></path><path id="kity_path_629" fill="none" stroke="gray"></path></g><path id="node_outline61" fill="none" stroke="none" d="M25.499986067414284,1488.5000037699938h504a5,5,0,0,1,5,5v66a5,5,0,0,1,-5,5h-504a5,5,0,0,1,-5,-5v-66a5,5,0,0,1,5,-5z"></path><g id="node_text61" fill="black"><text id="kity_text_313" text-rendering="inherit" font-size="12" dy=".8em" y="1491.7000036984682" x="30.499986067414284">调优参数：</text><text id="kity_text_314" text-rendering="inherit" font-size="12" dy=".8em" y="1509.7000036984682" x="30.499986067414284">1.spark.locality.wait.process 等待执行时间，看数据是否能与计算代码同一个jvm进程上执行</text><text id="kity_text_315" text-rendering="inherit" font-size="12" dy=".8em" y="1527.7000036984682" x="30.499986067414284">2.spark.locality.wait.node 等待执行时间，看数据是否能与计算代码在同一台机器上执行</text><text id="kity_text_316" text-rendering="inherit" font-size="12" dy=".8em" y="1545.7000036984682" x="30.499986067414284">3.spark.locality.wait.rack 等待执行时间，看数据是否能与计算代码在同一个机架上</text></g></g><g id="minder_node64"><g id="node_expander66" style="cursor: pointer;"><path id="kity_path_646" fill="white" stroke="gray" d="M668.4999945014715,1746.5000070482492A6,6,0,1,1,656.4999945014715,1746.5000070482492A6,6,0,1,1,668.4999945014715,1746.5000070482492"></path><path id="kity_path_647" fill="none" stroke="gray" d="M657.9999945014715,1746.5000070482492L666.9999945014715,1746.5000070482492"></path></g><path id="node_outline67" fill="none" stroke="none" d="M591.4999945014715,1735.5000070482492h60a5,5,0,0,1,5,5v12a5,5,0,0,1,-5,5h-60a5,5,0,0,1,-5,-5v-12a5,5,0,0,1,5,-5z"></path><g id="node_text67" fill="black"><text id="kity_text_335" text-rendering="inherit" font-size="12" dy=".8em" y="1738.7000069767237" x="596.4999945014715">算子优化</text></g></g><g id="minder_node65"><g id="node_expander62" style="cursor: pointer;" display="none"><path id="kity_path_634" fill="white" stroke="gray" d="M558.4999902546406,1623.5000052154064A6,6,0,1,1,546.4999902546406,1623.5000052154064A6,6,0,1,1,558.4999902546406,1623.5000052154064"></path><path id="kity_path_635" fill="none" stroke="gray"></path></g><path id="node_outline63" fill="none" stroke="none" d="M306.4999902546406,1594.5000052154064h235a5,5,0,0,1,5,5v48a5,5,0,0,1,-5,5h-235a5,5,0,0,1,-5,-5v-48a5,5,0,0,1,5,-5z"></path><g id="node_text63" fill="black"><text id="kity_text_320" text-rendering="inherit" font-size="12" dy=".8em" y="1597.7000051438808" x="311.4999902546406">map:一次处理一条数据</text><text id="kity_text_321" text-rendering="inherit" font-size="12" dy=".8em" y="1615.7000051438808" x="311.4999902546406">mapPartitions：一次处理一次分区的数据</text><text id="kity_text_322" text-rendering="inherit" font-size="12" dy=".8em" y="1633.7000051438808" x="311.4999902546406">，适用创建数据库链接操作</text></g></g><g id="minder_node66"><g id="node_expander63" style="cursor: pointer;" display="none"><path id="kity_path_637" fill="white" stroke="gray" d="M558.499990388751,1702.5000063925982A6,6,0,1,1,546.499990388751,1702.5000063925982A6,6,0,1,1,558.499990388751,1702.5000063925982"></path><path id="kity_path_638" fill="none" stroke="gray"></path></g><path id="node_outline64" fill="none" stroke="none" d="M315.49999038875103,1682.5000063925982h226a5,5,0,0,1,5,5v30a5,5,0,0,1,-5,5h-226a5,5,0,0,1,-5,-5v-30a5,5,0,0,1,5,-5z"></path><g id="node_text64" fill="black"><text id="kity_text_324" text-rendering="inherit" font-size="12" dy=".8em" y="1685.7000063210726" x="320.49999038875103">foreach:一次处理一条</text><text id="kity_text_325" text-rendering="inherit" font-size="12" dy=".8em" y="1703.7000063210726" x="320.49999038875103">foreachPartition:一次处理一个分区数据</text></g></g><g id="minder_node67"><g id="node_expander64" style="cursor: pointer;" display="none"><path id="kity_path_640" fill="white" stroke="gray" d="M558.4999910891056,1781.50000756979A6,6,0,1,1,546.4999910891056,1781.50000756979A6,6,0,1,1,558.4999910891056,1781.50000756979"></path><path id="kity_path_641" fill="none" stroke="gray"></path></g><path id="node_outline65" fill="none" stroke="none" d="M362.4999910891056,1752.50000756979h179a5,5,0,0,1,5,5v48a5,5,0,0,1,-5,5h-179a5,5,0,0,1,-5,-5v-48a5,5,0,0,1,5,-5z"></path><g id="node_text65" fill="black"><text id="kity_text_327" text-rendering="inherit" font-size="12" dy=".8em" y="1755.7000074982643" x="367.4999910891056">repartition:对分区调整</text><text id="kity_text_328" text-rendering="inherit" font-size="12" dy=".8em" y="1773.7000074982643" x="367.4999910891056">1.可以调整RDD并行度</text><text id="kity_text_329" text-rendering="inherit" font-size="12" dy=".8em" y="1791.7000074982643" x="367.4999910891056">2.可以解决RDD种数据倾斜问题</text></g></g><g id="minder_node68"><g id="node_expander65" style="cursor: pointer;" display="none"><path id="kity_path_643" fill="white" stroke="gray" d="M558.4999894946814,1869.500008881092A6,6,0,1,1,546.4999894946814,1869.500008881092A6,6,0,1,1,558.4999894946814,1869.500008881092"></path><path id="kity_path_644" fill="none" stroke="gray"></path></g><path id="node_outline66" fill="none" stroke="none" d="M255.49998949468136,1840.500008881092h286a5,5,0,0,1,5,5v48a5,5,0,0,1,-5,5h-286a5,5,0,0,1,-5,-5v-48a5,5,0,0,1,5,-5z"></path><g id="node_text66" fill="black"><text id="kity_text_331" text-rendering="inherit" font-size="12" dy=".8em" y="1843.7000088095665" x="260.49998949468136">reduceByKey与groupByKey:</text><text id="kity_text_332" text-rendering="inherit" font-size="12" dy=".8em" y="1861.7000088095665" x="260.49998949468136">1.都会进行shuffle</text><text id="kity_text_333" text-rendering="inherit" font-size="12" dy=".8em" y="1879.7000088095665" x="260.49998949468136">2.reduceByKey:会进行局部聚合，groupByKey不会</text></g></g><g id="minder_node69"><g id="node_expander78" style="cursor: pointer;"><path id="kity_path_682" fill="white" stroke="gray" d="M834.4999960064888,2294.5000152140856A6,6,0,1,1,822.4999960064888,2294.5000152140856A6,6,0,1,1,834.4999960064888,2294.5000152140856"></path><path id="kity_path_683" fill="none" stroke="gray" d="M823.9999960064888,2294.5000152140856L832.9999960064888,2294.5000152140856"></path></g><path id="node_outline79" fill="rgb(238, 246, 238)" stroke="rgb(57, 96, 58)" d="M680.4999960064888,2281.5000152140856h138a3,3,0,0,1,3,3v20a3,3,0,0,1,-3,3h-138a3,3,0,0,1,-3,-3v-20a3,3,0,0,1,3,-3z" stroke-width="3"></path><g id="node_text79" fill="black"><text id="kity_text_361" text-rendering="inherit" font-size="14" dy=".8em" y="2285.4000150710344" x="697.4999960064888">Spark 3.x新特性</text></g></g><g id="minder_node70"><g id="node_expander73" style="cursor: pointer;"><path id="kity_path_667" fill="white" stroke="gray" d="M649.499993339181,2077.5000119805336A6,6,0,1,1,637.499993339181,2077.5000119805336A6,6,0,1,1,649.499993339181,2077.5000119805336"></path><path id="kity_path_668" fill="none" stroke="gray" d="M638.999993339181,2077.5000119805336L647.999993339181,2077.5000119805336"></path></g><path id="node_outline74" fill="none" stroke="none" d="M513.499993339181,2066.5000119805336h119a5,5,0,0,1,5,5v12a5,5,0,0,1,-5,5h-119a5,5,0,0,1,-5,-5v-12a5,5,0,0,1,5,-5z"></path><g id="node_text74" fill="black"><text id="kity_text_349" text-rendering="inherit" font-size="12" dy=".8em" y="2069.700011909008" x="518.499993339181">自适应执行计划AQE</text></g></g><g id="minder_node71"><g id="node_expander68" style="cursor: pointer;" display="none"><path id="kity_path_652" fill="white" stroke="gray" d="M480.49999022483826,1950.5000100880861A6,6,0,1,1,468.49999022483826,1950.5000100880861A6,6,0,1,1,480.49999022483826,1950.5000100880861"></path><path id="kity_path_653" fill="none" stroke="gray"></path></g><path id="node_outline69" fill="none" stroke="none" d="M304.49999022483826,1939.5000100880861h159a5,5,0,0,1,5,5v12a5,5,0,0,1,-5,5h-159a5,5,0,0,1,-5,-5v-12a5,5,0,0,1,5,-5z"></path><g id="node_text69" fill="black"><text id="kity_text_339" text-rendering="inherit" font-size="12" dy=".8em" y="1942.7000100165606" x="309.49999022483826">自适应调整Shuffle分区数量</text></g></g><g id="minder_node72"><g id="node_expander70" style="cursor: pointer;"><path id="kity_path_658" fill="white" stroke="gray" d="M480.4999910444021,2053.5000116229057A6,6,0,1,1,468.4999910444021,2053.5000116229057A6,6,0,1,1,480.4999910444021,2053.5000116229057"></path><path id="kity_path_659" fill="none" stroke="gray" d="M469.9999910444021,2053.5000116229057L478.9999910444021,2053.5000116229057"></path></g><path id="node_outline71" fill="none" stroke="none" d="M359.4999910444021,2042.5000116229057h104a5,5,0,0,1,5,5v12a5,5,0,0,1,-5,5h-104a5,5,0,0,1,-5,-5v-12a5,5,0,0,1,5,-5z"></path><g id="node_text71" fill="black"><text id="kity_text_343" text-rendering="inherit" font-size="12" dy=".8em" y="2045.7000115513802" x="364.4999910444021">动态调整join策略</text></g></g><g id="minder_node73"><g id="node_expander69" style="cursor: pointer;" display="none"><path id="kity_path_655" fill="white" stroke="gray" d="M326.49998864531517,2053.500012382865A6,6,0,1,1,314.49998864531517,2053.500012382865A6,6,0,1,1,326.49998864531517,2053.500012382865"></path><path id="kity_path_656" fill="none" stroke="gray"></path></g><path id="node_outline70" fill="none" stroke="none" d="M99.49998864531517,1991.500012382865h210a5,5,0,0,1,5,5v114a5,5,0,0,1,-5,5h-210a5,5,0,0,1,-5,-5v-114a5,5,0,0,1,5,-5z"></path><g id="node_text70" fill="black"><text id="kity_text_341" text-rendering="inherit" font-size="12" dy=".8em" y="2096.7000123113394" x="203.49998864531517"> </text></g><image id="kity_image_369" xlink:href="https://kityminder-img.gz.bcebos.com/c763cfa894af93894b9cc8beda6fe2c9ddefd586" x="104.49998864531517" y="1996.500012382865" width="200" height="97"></image></g><g id="minder_node74"><g id="node_expander72" style="cursor: pointer;"><path id="kity_path_664" fill="white" stroke="gray" d="M480.49999088048935,2205.5000138878822A6,6,0,1,1,468.49999088048935,2205.5000138878822A6,6,0,1,1,480.49999088048935,2205.5000138878822"></path><path id="kity_path_665" fill="none" stroke="gray" d="M469.99999088048935,2205.5000138878822L478.99999088048935,2205.5000138878822"></path></g><path id="node_outline73" fill="none" stroke="none" d="M348.49999088048935,2194.5000138878822h115a5,5,0,0,1,5,5v12a5,5,0,0,1,-5,5h-115a5,5,0,0,1,-5,-5v-12a5,5,0,0,1,5,-5z"></path><g id="node_text73" fill="black"><text id="kity_text_347" text-rendering="inherit" font-size="12" dy=".8em" y="2197.7000138163567" x="353.49999088048935">动态优化倾斜的join</text></g></g><g id="minder_node75"><g id="node_expander71" style="cursor: pointer;" display="none"><path id="kity_path_661" fill="white" stroke="gray" d="M315.4999884814024,2205.500014618039A6,6,0,1,1,303.4999884814024,2205.500014618039A6,6,0,1,1,315.4999884814024,2205.500014618039"></path><path id="kity_path_662" fill="none" stroke="gray"></path></g><path id="node_outline72" fill="none" stroke="none" d="M88.4999884814024,2145.500014618039h210a5,5,0,0,1,5,5v110a5,5,0,0,1,-5,5h-210a5,5,0,0,1,-5,-5v-110a5,5,0,0,1,5,-5z"></path><g id="node_text72" fill="black"><text id="kity_text_345" text-rendering="inherit" font-size="12" dy=".8em" y="2246.7000145465136" x="192.4999884814024"> </text></g><image id="kity_image_370" xlink:href="https://kityminder-img.gz.bcebos.com/88d35f1c7f369d90f0cb5fbd965a03b1aeb0eacb" x="93.4999884814024" y="2150.500014618039" width="200" height="93"></image></g><g id="minder_node76"><g id="node_expander75" style="cursor: pointer;"><path id="kity_path_673" fill="white" stroke="gray" d="M649.4999921023846,2356.5000161379576A6,6,0,1,1,637.4999921023846,2356.5000161379576A6,6,0,1,1,649.4999921023846,2356.5000161379576"></path><path id="kity_path_674" fill="none" stroke="gray" d="M638.9999921023846,2356.5000161379576L647.9999921023846,2356.5000161379576"></path></g><path id="node_outline76" fill="none" stroke="none" d="M430.49999210238457,2327.5000161379576h202a5,5,0,0,1,5,5v48a5,5,0,0,1,-5,5h-202a5,5,0,0,1,-5,-5v-48a5,5,0,0,1,5,-5z"></path><g id="node_text76" fill="black"><text id="kity_text_353" text-rendering="inherit" font-size="12" dy=".8em" y="2330.700016066432" x="435.49999210238457">动态分区裁剪DPP：类似谓词下推，</text><text id="kity_text_354" text-rendering="inherit" font-size="12" dy=".8em" y="2348.700016066432" x="435.49999210238457">在join时候先对表进行过滤，减少</text><text id="kity_text_355" text-rendering="inherit" font-size="12" dy=".8em" y="2366.700016066432" x="435.49999210238457">join的数据参与量</text></g></g><g id="minder_node77"><g id="node_expander74" style="cursor: pointer;" display="none"><path id="kity_path_670" fill="white" stroke="gray" d="M397.4999897032976,2356.500016897917A6,6,0,1,1,385.4999897032976,2356.500016897917A6,6,0,1,1,397.4999897032976,2356.500016897917"></path><path id="kity_path_671" fill="none" stroke="gray"></path></g><path id="node_outline75" fill="none" stroke="none" d="M170.49998970329762,2294.500016897917h210a5,5,0,0,1,5,5v114a5,5,0,0,1,-5,5h-210a5,5,0,0,1,-5,-5v-114a5,5,0,0,1,5,-5z"></path><g id="node_text75" fill="black"><text id="kity_text_351" text-rendering="inherit" font-size="12" dy=".8em" y="2399.700016826391" x="274.4999897032976"> </text></g><image id="kity_image_371" xlink:href="https://kityminder-img.gz.bcebos.com/182726dfafb2118223255e206714e806fdaf807c" x="175.49998970329762" y="2299.500016897917" width="200" height="97" xlink:title="DPP"></image></g><g id="minder_node78"><g id="node_expander76" style="cursor: pointer;" display="none"><path id="kity_path_676" fill="white" stroke="gray" d="M649.4999918937683,2459.500017672777A6,6,0,1,1,637.4999918937683,2459.500017672777A6,6,0,1,1,649.4999918937683,2459.500017672777"></path><path id="kity_path_677" fill="none" stroke="gray"></path></g><path id="node_outline77" fill="none" stroke="none" d="M416.4999918937683,2448.500017672777h216a5,5,0,0,1,5,5v12a5,5,0,0,1,-5,5h-216a5,5,0,0,1,-5,-5v-12a5,5,0,0,1,5,-5z"></path><g id="node_text77" fill="black"><text id="kity_text_357" text-rendering="inherit" font-size="12" dy=".8em" y="2451.7000176012516" x="421.4999918937683">加速器感知调度：支持GPU资源的调度</text></g></g><g id="minder_node79"><g id="node_expander77" style="cursor: pointer;" display="none"><path id="kity_path_679" fill="white" stroke="gray" d="M649.4999936521053,2511.5000184476376A6,6,0,1,1,637.4999936521053,2511.5000184476376A6,6,0,1,1,649.4999936521053,2511.5000184476376"></path><path id="kity_path_680" fill="none" stroke="gray"></path></g><path id="node_outline78" fill="none" stroke="none" d="M534.4999936521053,2500.5000184476376h98a5,5,0,0,1,5,5v12a5,5,0,0,1,-5,5h-98a5,5,0,0,1,-5,-5v-12a5,5,0,0,1,5,-5z"></path><g id="node_text78" fill="black"><text id="kity_text_359" text-rendering="inherit" font-size="12" dy=".8em" y="2503.700018376112" x="539.4999936521053">Catalog插件API</text></g></g></g></g></svg>